@startuml
class Examen{
 - evaluación
 - clave corrección
}
class Asignatura{
 - título
 - código
 - curso académico
}
class Pregunta{
 - asignatura
 - enunciado
 - tema
 - dificultad
}
class BateriaDePreguntas{
}
class Grado{
 - título
 - código
}
class Profesor{
 - nombre
 - apellidos
 - DNI
}
class Alumno{
 - nombre
 - apellidos
 - DNI
}
enum EvaluaciónExamen{
 - Parcial 1
 - Parcial 2
 - Parcial 3
 - Examen final
 - Examen extraordinario
}
enum DificultadPregunta{
 - facil
 - medio
 - dificil
}

class Respuesta{
 - opción
 - esCorrecta
}

enum Tema{
}

Respuesta -u-* Pregunta
Pregunta ..> DificultadPregunta
Pregunta -u-o Examen : contiene
Pregunta -u-* BateriaDePreguntas : contiene
Examen ..> EvaluaciónExamen
BateriaDePreguntas -u-* Asignatura : tiene
Examen -u-* Asignatura : tiene
Profesor o-r- Asignatura : tiene
Asignatura --> Grado : pertenece
Alumno -u-o Examen : realiza
Alumno -u-* Asignatura : se imparte
Alumno -u-* Grado : se cursa
Pregunta ..> Tema
@enduml